<svg width="35" height="16" viewBox="0 0 35 16" fill="none" xmlns="http://www.w3.org/2000/svg">
<path d="M1.12056 7.26419L1.24072 7.14403C15.9293 -5.94647 29.6252 3.80525 33.4788 7.10754C33.7792 7.36352 34.0262 7.67624 34.2056 8.02778C34.385 8.37932 34.4932 8.76278 34.5242 9.15618C34.5551 9.54957 34.5081 9.94518 34.3859 10.3203C34.2637 10.6955 34.0686 11.0428 33.8119 11.3424L29.9172 15.2371C29.6343 15.5205 29.2728 15.7124 28.8796 15.788C28.4863 15.8636 28.0794 15.8193 27.7115 15.6609L23.9925 14.0907C23.632 13.9371 23.3245 13.681 23.1083 13.3541C22.892 13.0273 22.7765 12.6442 22.7762 12.2524L22.7615 9.2265C21.1893 8.12472 19.3169 7.53231 17.3974 7.52943C15.478 7.52655 13.6042 8.11333 12.0296 9.21039L12.016 12.2645C12.0106 12.6571 11.8898 13.0394 11.6686 13.3638C11.4474 13.6881 11.1356 13.9401 10.772 14.0883L7.0395 15.6854C6.67232 15.8363 6.26847 15.8746 5.87941 15.7952C5.49034 15.7158 5.13368 15.5224 4.85486 15.2396L1.12134 11.5061C0.558728 10.9434 0.242574 10.1805 0.242427 9.38496C0.242281 8.58946 0.558153 7.82659 1.12056 7.26419ZM32.228 10.0978C32.4155 9.91036 32.5208 9.65607 32.5208 9.3909C32.5207 9.12573 32.4153 8.87141 32.2278 8.68387L32.1712 8.6273C27.66 4.76638 15.6753 -3.04792 2.57718 8.63599C2.47858 8.72312 2.39815 8.82885 2.34051 8.94714C2.28288 9.06542 2.24916 9.19393 2.2413 9.3253C2.23345 9.45666 2.2516 9.58829 2.29472 9.71264C2.33785 9.83699 2.40509 9.95161 2.4926 10.0499L6.26855 13.8259L10.0011 12.2288L10.0145 8.1849L10.3962 7.88804C17.3165 2.50922 24.3024 7.82697 24.3661 7.89061L24.7479 8.18761L24.7698 12.2245L28.4959 13.83L32.228 10.0978Z" fill="#EFEFEF"/>
</svg>
