<svg width="24" height="24" viewBox="0 0 24 24" fill="none" xmlns="http://www.w3.org/2000/svg">
<path d="M12 17.3333C13.4145 17.3333 14.771 16.7714 15.7712 15.7712C16.7714 14.771 17.3333 13.4145 17.3333 12C17.3333 10.5855 16.7714 9.22895 15.7712 8.22875C14.771 7.22856 13.4145 6.66666 12 6.66666C10.5855 6.66666 9.22895 7.22856 8.22875 8.22875C7.22856 9.22895 6.66666 10.5855 6.66666 12C6.66666 13.4145 7.22856 14.771 8.22875 15.7712C9.22895 16.7714 10.5855 17.3333 12 17.3333Z" stroke="#EFEFEF" stroke-width="2" stroke-linecap="round" stroke-linejoin="round"/>
<path d="M1 17.3333V6.66667C1 5.16377 1.59702 3.72243 2.65973 2.65973C3.72243 1.59702 5.16377 1 6.66667 1H17.3333C18.8362 1 20.2776 1.59702 21.3403 2.65973C22.403 3.72243 23 5.16377 23 6.66667V17.3333C23 18.8362 22.403 20.2776 21.3403 21.3403C20.2776 22.403 18.8362 23 17.3333 23H6.66667C5.16377 23 3.72243 22.403 2.65973 21.3403C1.59702 20.2776 1 18.8362 1 17.3333Z" stroke="#EFEFEF" stroke-width="2"/>
<path d="M19.3333 4.67998L19.3467 4.66531" stroke="#EFEFEF" stroke-width="1.5" stroke-linecap="round" stroke-linejoin="round"/>
</svg>
