<svg width="24" height="24" viewBox="0 0 24 24" fill="none" xmlns="http://www.w3.org/2000/svg">
<path d="M20.5025 3.49207C19.3968 2.38078 18.0798 1.49967 16.6283 0.900133C15.1768 0.300593 13.6198 -0.00537614 12.0482 7.14835e-05C5.46332 7.14835e-05 0.0964826 5.34007 0.0964826 11.8921C0.0964826 13.9921 0.651256 16.0321 1.68844 17.8321L0 24.0001L6.33166 22.3441C8.0804 23.2921 10.0462 23.7961 12.0482 23.7961C18.6332 23.7961 24 18.4561 24 11.9041C24 8.72407 22.7578 5.73607 20.5025 3.49207ZM12.0482 21.7801C10.2633 21.7801 8.51457 21.3001 6.98291 20.4001L6.6211 20.1841L2.85829 21.1681L3.8593 17.5201L3.61809 17.1481C2.62643 15.5724 2.09987 13.7512 2.09849 11.8921C2.09849 6.44407 6.5608 2.00407 12.0362 2.00407C14.6894 2.00407 17.1859 3.03607 19.0553 4.90807C19.9809 5.82483 20.7144 6.91527 21.2133 8.11618C21.7123 9.3171 21.9667 10.6046 21.9618 11.9041C21.9859 17.3521 17.5236 21.7801 12.0482 21.7801ZM17.4995 14.3881C17.198 14.2441 15.7266 13.5241 15.4613 13.4161C15.1839 13.3201 14.991 13.2721 14.7859 13.5601C14.5809 13.8601 14.0141 14.5321 13.8452 14.7241C13.6764 14.9281 13.4955 14.9521 13.194 14.7961C12.8925 14.6521 11.9276 14.3281 10.794 13.3201C9.90151 12.5281 9.31055 11.5561 9.12965 11.2561C8.9608 10.9561 9.10553 10.8001 9.26231 10.6441C9.39497 10.5121 9.56382 10.2961 9.70854 10.1281C9.85327 9.96007 9.91357 9.82807 10.01 9.63607C10.1065 9.43207 10.0583 9.26407 9.98593 9.12007C9.91357 8.97607 9.31055 7.51207 9.06935 6.91207C8.82814 6.33607 8.57487 6.40807 8.39397 6.39607H7.81507C7.61005 6.39607 7.29648 6.46807 7.01909 6.76807C6.75377 7.06807 5.98191 7.78807 5.98191 9.25207C5.98191 10.7161 7.05528 12.1321 7.2 12.3241C7.34472 12.5281 9.31055 15.5281 12.3015 16.8121C13.0131 17.1241 13.5678 17.3041 14.002 17.4361C14.7136 17.6641 15.3648 17.6281 15.8834 17.5561C16.4623 17.4721 17.6563 16.8361 17.8975 16.1401C18.1508 15.4441 18.1508 14.8561 18.0663 14.7241C17.9819 14.5921 17.801 14.5321 17.4995 14.3881Z" fill="#EFEFEF"/>
</svg>
